<svg width="100" height="100" viewBox="0 0 100 100" fill="none" xmlns="http://www.w3.org/2000/svg">
<circle cx="50" cy="50" r="50" fill="#E8E8E8"/>
<path d="M67.0304 55.4714L59.5928 52.2247C59.275 52.0868 58.9219 52.0577 58.5866 52.1419C58.2512 52.2261 57.9518 52.4189 57.7333 52.6914L54.4395 56.7904C49.2702 54.3079 45.1101 50.0705 42.6728 44.8053L46.6971 41.4504C46.9652 41.2283 47.1549 40.9233 47.2376 40.5816C47.3203 40.2399 47.2914 39.88 47.1553 39.5565L43.9678 31.9808C43.8184 31.6321 43.5543 31.3474 43.2209 31.1757C42.8875 31.0041 42.5058 30.9563 42.1415 31.0406L35.2352 32.664C34.884 32.7466 34.5707 32.948 34.3463 33.2353C34.122 33.5227 33.9999 33.879 34 34.2461C34 51.5956 47.8061 65.6309 64.813 65.6309C65.1736 65.6311 65.5235 65.5068 65.8058 65.2783C66.088 65.0498 66.2858 64.7306 66.367 64.3728L67.9607 57.3382C68.043 56.9654 67.9951 56.5751 67.8253 56.2343C67.6555 55.8936 67.3744 55.6238 67.0304 55.4714Z" fill="#FBB034"/>
</svg>
